#Comment line ignore any data following # character 
#Hierarchical Translation and Rotation (.htr) file 
[Header]	
#Header keywords are followed by a single value 
FileType HTR		#Single word string
DataType HTRS		#Translation followed by rotation and scale data
FileVersion 1		#integer
NumSegments 84		#integer
NumFrames 2		#integer
DataFrameRate 30		#integer, data frame rate in this file
EulerRotationOrder ZYX
CalibrationUnits mm
RotationUnits Degrees
GlobalAxisofGravity Y
BoneLengthAxis Y
ScaleFactor 1.00
[SegmentNames&Hierarchy]
#CHILD	PARENT
MASTER GLOBAL
root MASTER
chest root
L_mid_tent01 root
R_mid_tent01 root
spine01 root
Bip01_Neck chest
L_humerus chest
R_humerus chest
weapon_bone chest
Bip01_Head Bip01_Neck
eye_left_bone Bip01_Head
eye_right_bone Bip01_Head
L_forearm L_humerus
L_front_hand L_forearm
L_weapon_bone L_forearm
L_front_hand01_01 L_front_hand
L_front_hand02_01 L_front_hand
L_front_hand03_01 L_front_hand
L_front_hand01_02 L_front_hand01_01
L_front_hand02_02 L_front_hand02_01
L_front_hand03_02 L_front_hand03_01
R_forearm R_humerus
R_front_hand R_forearm
R_weapon_bone R_forearm
R_front_hand01_01 R_front_hand
R_front_hand02_01 R_front_hand
R_front_hand03_01 R_front_hand
R_front_hand01_02 R_front_hand01_01
R_front_hand02_02 R_front_hand02_01
R_front_hand03_02 R_front_hand03_01
null_rope01_connect L_mid_tent01
Rope1_Seg01 null_rope01_connect
Rope1_Seg02 Rope1_Seg01
Rope1_Seg03 Rope1_Seg02
Rope1_Seg04 Rope1_Seg03
Rope1_Seg05 Rope1_Seg04
Rope1_Seg06 Rope1_Seg05
Rope1_Seg07 Rope1_Seg06
Rope1_Seg09 Rope1_Seg07
L_mid_hand01 Rope1_Seg09
L_mid_hand02 Rope1_Seg09
L_mid_hand03 Rope1_Seg09
null_rope02_connect R_mid_tent01
Rope2_Seg01 null_rope02_connect
Rope2_Seg02 Rope2_Seg01
Rope2_Seg03 Rope2_Seg02
Rope2_Seg04 Rope2_Seg03
Rope2_Seg05 Rope2_Seg04
Rope2_Seg06 Rope2_Seg05
Rope2_Seg07 Rope2_Seg06
Rope2_Seg09 Rope2_Seg07
R_mid_hand01 Rope2_Seg09
R_mid_hand02 Rope2_Seg09
R_mid_hand03 Rope2_Seg09
spine02 spine01
spine03 spine02
pelvis spine03
null_rope03_connect pelvis
null_rope04_connect pelvis
Rope3_Seg01 null_rope03_connect
Rope3_Seg02 Rope3_Seg01
Rope3_Seg03 Rope3_Seg02
Rope3_Seg04 Rope3_Seg03
Rope3_Seg05 Rope3_Seg04
Rope3_Seg06 Rope3_Seg05
Rope3_Seg07 Rope3_Seg06
Rope3_Seg08 Rope3_Seg07
Rope3_Seg09 Rope3_Seg08
R_rear_hand01 Rope3_Seg09
R_rear_hand02 Rope3_Seg09
R_rear_hand03 Rope3_Seg09
Rope4_Seg01 null_rope04_connect
Rope4_Seg02 Rope4_Seg01
Rope4_Seg03 Rope4_Seg02
Rope4_Seg04 Rope4_Seg03
Rope4_Seg05 Rope4_Seg04
Rope4_Seg06 Rope4_Seg05
Rope4_Seg07 Rope4_Seg06
Rope4_Seg08 Rope4_Seg07
Rope4_Seg09 Rope4_Seg08
L_rear_hand01 Rope4_Seg09
L_rear_hand02 Rope4_Seg09
L_rear_hand03 Rope4_Seg09
[BasePosition]
#SegmentName Tx, Ty, Tz, Rx, Ry, Rz, BoneLength
MASTER 0.000000 0.000000 0.000000 -90.000000 0.000000 0.000000 10.000000 
root 0.000000 0.000000 0.000000 0.000000 0.000000 0.000000 10.000000 
chest 0.000000 0.000000 0.000000 0.000000 0.000000 0.000000 10.000000 
L_mid_tent01 0.000000 0.000000 0.000000 0.000000 0.000000 0.000000 10.000000 
R_mid_tent01 0.000000 0.000000 0.000000 0.000000 0.000000 0.000000 10.000000 
spine01 0.000000 0.000000 0.000000 0.000000 0.000000 0.000000 10.000000 
Bip01_Neck 0.000000 0.000000 0.000000 0.000000 0.000000 0.000000 10.000000 
L_humerus 0.000000 0.000000 0.000000 0.000000 0.000000 0.000000 10.000000 
R_humerus 0.000000 0.000000 0.000000 0.000000 0.000000 0.000000 10.000000 
weapon_bone 0.000000 0.000000 0.000000 0.000000 0.000000 0.000000 10.000000 
Bip01_Head 0.000000 0.000000 0.000000 0.000000 0.000000 0.000000 10.000000 
eye_left_bone 0.000000 0.000000 0.000000 0.000000 0.000000 0.000000 10.000000 
eye_right_bone 0.000000 0.000000 0.000000 0.000000 0.000000 0.000000 10.000000 
L_forearm 0.000000 0.000000 0.000000 0.000000 0.000000 0.000000 10.000000 
L_front_hand 0.000000 0.000000 0.000000 0.000000 0.000000 0.000000 10.000000 
L_weapon_bone 0.000000 0.000000 0.000000 0.000000 0.000000 0.000000 10.000000 
L_front_hand01_01 0.000000 0.000000 0.000000 0.000000 0.000000 0.000000 10.000000 
L_front_hand02_01 0.000000 0.000000 0.000000 0.000000 0.000000 0.000000 10.000000 
L_front_hand03_01 0.000000 0.000000 0.000000 0.000000 0.000000 0.000000 10.000000 
L_front_hand01_02 0.000000 0.000000 0.000000 0.000000 0.000000 0.000000 10.000000 
L_front_hand02_02 0.000000 0.000000 0.000000 0.000000 0.000000 0.000000 10.000000 
L_front_hand03_02 0.000000 0.000000 0.000000 0.000000 0.000000 0.000000 10.000000 
R_forearm 0.000000 0.000000 0.000000 0.000000 0.000000 0.000000 10.000000 
R_front_hand 0.000000 0.000000 0.000000 0.000000 0.000000 0.000000 10.000000 
R_weapon_bone 0.000000 0.000000 0.000000 0.000000 0.000000 0.000000 10.000000 
R_front_hand01_01 0.000000 0.000000 0.000000 0.000000 0.000000 0.000000 10.000000 
R_front_hand02_01 0.000000 0.000000 0.000000 0.000000 0.000000 0.000000 10.000000 
R_front_hand03_01 0.000000 0.000000 0.000000 0.000000 0.000000 0.000000 10.000000 
R_front_hand01_02 0.000000 0.000000 0.000000 0.000000 0.000000 0.000000 10.000000 
R_front_hand02_02 0.000000 0.000000 0.000000 0.000000 0.000000 0.000000 10.000000 
R_front_hand03_02 0.000000 0.000000 0.000000 0.000000 0.000000 0.000000 10.000000 
null_rope01_connect 0.000000 0.000000 0.000000 0.000000 0.000000 0.000000 10.000000 
Rope1_Seg01 0.000000 0.000000 0.000000 0.000000 0.000000 0.000000 10.000000 
Rope1_Seg02 0.000000 0.000000 0.000000 0.000000 0.000000 0.000000 10.000000 
Rope1_Seg03 0.000000 0.000000 0.000000 0.000000 0.000000 0.000000 10.000000 
Rope1_Seg04 0.000000 0.000000 0.000000 0.000000 0.000000 0.000000 10.000000 
Rope1_Seg05 0.000000 0.000000 0.000000 0.000000 0.000000 0.000000 10.000000 
Rope1_Seg06 0.000000 0.000000 0.000000 0.000000 0.000000 0.000000 10.000000 
Rope1_Seg07 0.000000 0.000000 0.000000 0.000000 0.000000 0.000000 10.000000 
Rope1_Seg09 0.000000 0.000000 0.000000 0.000000 0.000000 0.000000 10.000000 
L_mid_hand01 0.000000 0.000000 0.000000 0.000000 0.000000 0.000000 10.000000 
L_mid_hand02 0.000000 0.000000 0.000000 0.000000 0.000000 0.000000 10.000000 
L_mid_hand03 0.000000 0.000000 0.000000 0.000000 0.000000 0.000000 10.000000 
null_rope02_connect 0.000000 0.000000 0.000000 0.000000 0.000000 0.000000 10.000000 
Rope2_Seg01 0.000000 0.000000 0.000000 0.000000 0.000000 0.000000 10.000000 
Rope2_Seg02 0.000000 0.000000 0.000000 0.000000 0.000000 0.000000 10.000000 
Rope2_Seg03 0.000000 0.000000 0.000000 0.000000 0.000000 0.000000 10.000000 
Rope2_Seg04 0.000000 0.000000 0.000000 0.000000 0.000000 0.000000 10.000000 
Rope2_Seg05 0.000000 0.000000 0.000000 0.000000 0.000000 0.000000 10.000000 
Rope2_Seg06 0.000000 0.000000 0.000000 0.000000 0.000000 0.000000 10.000000 
Rope2_Seg07 0.000000 0.000000 0.000000 0.000000 0.000000 0.000000 10.000000 
Rope2_Seg09 0.000000 0.000000 0.000000 0.000000 0.000000 0.000000 10.000000 
R_mid_hand01 0.000000 0.000000 0.000000 0.000000 0.000000 0.000000 10.000000 
R_mid_hand02 0.000000 0.000000 0.000000 0.000000 0.000000 0.000000 10.000000 
R_mid_hand03 0.000000 0.000000 0.000000 0.000000 0.000000 0.000000 10.000000 
spine02 0.000000 0.000000 0.000000 0.000000 0.000000 0.000000 10.000000 
spine03 0.000000 0.000000 0.000000 0.000000 0.000000 0.000000 10.000000 
pelvis 0.000000 0.000000 0.000000 0.000000 0.000000 0.000000 10.000000 
null_rope03_connect 0.000000 0.000000 0.000000 0.000000 0.000000 0.000000 10.000000 
null_rope04_connect 0.000000 0.000000 0.000000 0.000000 0.000000 0.000000 10.000000 
Rope3_Seg01 0.000000 0.000000 0.000000 0.000000 0.000000 0.000000 10.000000 
Rope3_Seg02 0.000000 0.000000 0.000000 0.000000 0.000000 0.000000 10.000000 
Rope3_Seg03 0.000000 0.000000 0.000000 0.000000 0.000000 0.000000 10.000000 
Rope3_Seg04 0.000000 0.000000 0.000000 0.000000 0.000000 0.000000 10.000000 
Rope3_Seg05 0.000000 0.000000 0.000000 0.000000 0.000000 0.000000 10.000000 
Rope3_Seg06 0.000000 0.000000 0.000000 0.000000 0.000000 0.000000 10.000000 
Rope3_Seg07 0.000000 0.000000 0.000000 0.000000 0.000000 0.000000 10.000000 
Rope3_Seg08 0.000000 0.000000 0.000000 0.000000 0.000000 0.000000 10.000000 
Rope3_Seg09 0.000000 0.000000 0.000000 0.000000 0.000000 0.000000 10.000000 
R_rear_hand01 0.000000 0.000000 0.000000 0.000000 0.000000 0.000000 10.000000 
R_rear_hand02 0.000000 0.000000 0.000000 0.000000 0.000000 0.000000 10.000000 
R_rear_hand03 0.000000 0.000000 0.000000 0.000000 0.000000 0.000000 10.000000 
Rope4_Seg01 0.000000 0.000000 0.000000 0.000000 0.000000 0.000000 10.000000 
Rope4_Seg02 0.000000 0.000000 0.000000 0.000000 0.000000 0.000000 10.000000 
Rope4_Seg03 0.000000 0.000000 0.000000 0.000000 0.000000 0.000000 10.000000 
Rope4_Seg04 0.000000 0.000000 0.000000 0.000000 0.000000 0.000000 10.000000 
Rope4_Seg05 0.000000 0.000000 0.000000 0.000000 0.000000 0.000000 10.000000 
Rope4_Seg06 0.000000 0.000000 0.000000 0.000000 0.000000 0.000000 10.000000 
Rope4_Seg07 0.000000 0.000000 0.000000 0.000000 0.000000 0.000000 10.000000 
Rope4_Seg08 0.000000 0.000000 0.000000 0.000000 0.000000 0.000000 10.000000 
Rope4_Seg09 0.000000 0.000000 0.000000 0.000000 0.000000 0.000000 10.000000 
L_rear_hand01 0.000000 0.000000 0.000000 0.000000 0.000000 0.000000 10.000000 
L_rear_hand02 0.000000 0.000000 0.000000 0.000000 0.000000 0.000000 10.000000 
L_rear_hand03 0.000000 0.000000 0.000000 0.000000 0.000000 0.000000 10.000000 
#Beginning of Data. Separated by tabs
#Fr	Tx	Ty	Tz	Rx	Ry	Rz	SF
[MASTER]
28 0.000003 -0.000024 -5092.785156 0.001660 0.001660 0.001660 5092.785156
29 0.000003 -0.000021 -5287.824707 0.001660 0.001660 0.001660 5287.824707
[root]
28 -16.502304 3.668773 1451.194824 -77.026703 -17.621777 -95.402199 1451.293335
29 -16.502304 4.949810 1450.531616 -82.632645 -21.297342 -93.037247 1450.633911
[chest]
28 -84.512650 -34.090519 0.000000 -1.703896 -2.091247 -177.105896 91.129311
29 -84.512650 -34.090519 0.000000 -2.286261 -2.124170 -173.647980 91.129311
[L_mid_tent01]
28 27.299229 22.178768 -249.918640 4.129166 29.367680 81.685371 252.381607
29 27.299225 22.178782 -249.918640 3.862581 36.229187 81.347511 252.381607
[R_mid_tent01]
28 23.228794 24.509907 226.238495 162.931290 -34.863918 83.459015 228.744751
29 23.228794 24.509907 226.238495 160.432098 -47.061226 87.899666 228.744751
[spine01]
28 -0.361383 -0.195265 0.000000 0.001878 0.001408 16.308157 0.410763
29 -0.361383 -0.195265 0.000000 0.001845 0.001451 13.654366 0.410763
[Bip01_Neck]
28 165.484543 71.581718 0.000119 176.643677 -1.657967 43.431911 180.302734
29 165.484543 71.581718 0.000119 176.643677 -1.657967 43.431911 180.302734
[L_humerus]
28 -13.983130 -135.272980 -120.471481 167.826111 33.230797 -77.641647 181.680161
29 -13.983130 -135.272980 -120.471481 168.131668 42.185516 -84.359222 181.680161
[R_humerus]
28 -13.983309 -135.273102 125.287651 -176.309006 -29.454054 -87.154350 184.909012
29 -13.983309 -135.273102 125.287651 -175.454605 -38.445694 -88.478279 184.909012
[weapon_bone]
28 235.964890 -300.705902 0.000000 0.000000 -89.951546 -128.212341 382.234833
29 235.964890 -300.705902 0.000000 0.000000 -89.951546 -128.212341 382.234833
[Bip01_Head]
28 213.440384 185.726013 11.640270 4.965422 4.680867 -43.863174 283.172119
29 213.444199 185.715332 11.776962 4.962490 2.797846 -43.898743 283.173645
[eye_left_bone]
28 -24.626970 125.451866 -64.772606 0.000000 -90.000000 -99.840431 143.318359
29 -24.626970 125.451866 -64.772606 0.000000 -90.000000 -99.840431 143.318359
[eye_right_bone]
28 -24.626970 125.451866 64.327362 0.000000 -89.965736 80.156380 143.117676
29 -24.626970 125.451866 64.327362 0.000000 -89.965736 80.156380 143.117676
[L_forearm]
28 322.776093 0.000000 -0.000119 0.000115 -0.002344 -95.620697 322.776093
29 322.776093 0.000000 -0.000119 0.000119 -0.002344 -95.807472 322.776093
[L_front_hand]
28 241.149185 -0.042021 -3.300071 -178.667633 -1.835210 -27.442717 241.171753
29 241.149185 -0.042021 -3.300071 -178.667786 -1.835329 -27.432533 241.171753
[L_weapon_bone]
28 156.183838 0.000000 0.000000 0.000014 0.000007 0.000001 156.183838
29 156.183838 0.000000 0.000000 0.000014 0.000007 0.000001 156.183838
[L_front_hand01_01]
28 86.095154 20.947098 -0.655860 -0.366594 -0.477154 75.385574 88.609184
29 86.095154 20.947098 -0.655860 -0.366594 -0.477154 75.385574 88.609184
[L_front_hand02_01]
28 86.935165 -11.437475 24.513514 154.399796 -59.883835 -61.369587 91.046425
29 86.935165 -11.437475 24.513514 154.399796 -59.883835 -61.369587 91.046425
[L_front_hand03_01]
28 86.637497 -14.123976 -20.424902 -153.913849 58.118122 -62.702866 90.126129
29 86.637497 -14.123976 -20.424902 -153.913849 58.118122 -62.702866 90.126129
[L_front_hand01_02]
28 71.020905 -0.000179 0.000030 0.000334 -0.002323 -106.379684 71.020905
29 71.020905 -0.000179 0.000030 0.000334 -0.002323 -106.379684 71.020905
[L_front_hand02_02]
28 71.020927 -0.000119 0.000060 0.000334 -0.002323 -106.379684 71.020927
29 71.020927 -0.000119 0.000060 0.000334 -0.002323 -106.379684 71.020927
[L_front_hand03_02]
28 71.020905 -0.000060 0.000060 0.000334 -0.002323 -106.379684 71.020905
29 71.020905 -0.000060 0.000060 0.000334 -0.002323 -106.379684 71.020905
[R_forearm]
28 322.776428 -0.000060 0.000030 0.209525 0.012228 -94.143333 322.776428
29 322.776428 -0.000060 0.000030 0.209504 0.012586 -94.339058 322.776428
[R_front_hand]
28 238.847015 -0.006795 2.210259 -2.628022 -10.644917 -26.338669 238.857239
29 238.847015 -0.006795 2.210259 -2.631661 -10.645189 -26.325586 238.857239
[R_weapon_bone]
28 155.664093 0.002503 -0.000030 0.003487 0.001180 -90.988930 155.664078
29 155.664093 0.002503 -0.000030 0.003487 0.001180 -90.988930 155.664078
[R_front_hand01_01]
28 87.624611 14.231146 22.918642 -154.633499 -59.950619 61.746044 91.683487
29 87.624611 14.231146 22.918642 -154.633499 -59.950619 61.746044 91.683487
[R_front_hand02_01]
28 89.356956 14.367283 -19.491137 154.602661 58.302849 63.744389 92.579636
29 89.356956 14.367283 -19.491137 154.602661 58.302849 63.744389 92.579636
[R_front_hand03_01]
28 87.286232 -22.307278 -0.143439 0.162155 -0.423168 -75.767921 90.091743
29 87.286232 -22.307278 -0.143439 0.162155 -0.423168 -75.767921 90.091743
[R_front_hand01_02]
28 71.020905 0.000060 0.000119 0.002323 -0.000334 106.381714 71.020905
29 71.020905 0.000060 0.000119 0.002323 -0.000334 106.381714 71.020905
[R_front_hand02_02]
28 71.020844 -0.000030 -0.000119 0.002323 -0.000334 106.381714 71.020836
29 71.020844 -0.000030 -0.000119 0.002323 -0.000334 106.381714 71.020836
[R_front_hand03_02]
28 71.020905 0.000000 0.000030 0.002323 -0.000334 106.381714 71.020905
29 71.020905 0.000000 0.000030 0.002323 -0.000334 106.381714 71.020905
[null_rope01_connect]
28 328.732483 0.000000 -0.000238 -124.677116 -68.241722 150.150269 328.732483
29 328.732483 0.000000 -0.000238 -136.353989 -58.625938 166.329300 328.732483
[Rope1_Seg01]
28 0.000053 -0.000044 0.000211 -16.583838 9.216332 156.263870 0.000222
29 0.000055 -0.000044 0.000219 -16.949865 1.469690 157.281952 0.000230
[Rope1_Seg02]
28 139.999863 -0.000179 0.000000 -0.235067 5.275466 -4.490891 139.999863
29 139.999863 -0.000179 0.000000 0.026787 10.145823 -2.066467 139.999863
[Rope1_Seg03]
28 139.999924 0.000060 -0.000060 -0.339487 4.503423 -1.877692 139.999924
29 139.999924 0.000060 -0.000060 -0.112607 7.104580 4.867157 139.999924
[Rope1_Seg04]
28 139.999924 -0.000060 -0.000119 -0.490219 3.680374 -0.370430 139.999924
29 139.999924 -0.000060 -0.000119 -0.306795 6.161093 -8.392718 139.999924
[Rope1_Seg05]
28 139.999832 0.000119 -0.000060 1.377122 4.638076 -13.482930 139.999832
29 139.999832 0.000119 -0.000060 3.838598 6.200748 -22.714392 139.999832
[Rope1_Seg06]
28 139.999954 0.000119 -0.000060 5.956616 4.112870 -18.394728 139.999954
29 139.999954 0.000119 -0.000060 5.110683 2.863738 -12.205350 139.999954
[Rope1_Seg07]
28 139.999985 0.000060 0.000000 5.693193 1.511192 -9.745550 139.999985
29 139.999985 0.000060 0.000000 4.557583 1.107836 -7.101479 139.999985
[Rope1_Seg09]
28 121.602913 0.000119 -0.000089 -89.793175 -1.359789 0.847147 121.602913
29 121.602913 0.000119 -0.000089 -89.793175 -1.359789 0.847147 121.602913
[L_mid_hand01]
28 103.859421 1.038730 8.195221 130.544373 -67.584534 -38.866943 104.187431
29 103.859421 1.038730 8.195221 130.544373 -67.584534 -38.866943 104.187431
[L_mid_hand02]
28 105.572853 -4.139662 -10.864139 -168.923172 43.409309 -73.498886 106.211075
29 105.572853 -4.139662 -10.864139 -168.923172 43.409309 -73.498886 106.211075
[L_mid_hand03]
28 104.641464 17.579376 -3.913581 -6.012627 17.808174 74.893669 106.179977
29 104.641464 17.579376 -3.913581 -6.012627 17.808174 74.893669 106.179977
[null_rope02_connect]
28 328.732849 0.000179 -0.000119 -138.203903 44.269615 7.848129 328.732849
29 328.732849 0.000179 -0.000119 -134.627716 35.539177 10.619492 328.732849
[Rope2_Seg01]
28 0.000056 0.000109 0.000000 82.492073 4.552907 -2.218733 0.000123
29 0.000061 0.000110 0.000000 68.209572 13.769133 -11.487494 0.000125
[Rope2_Seg02]
28 139.999741 -0.000060 -0.000119 -6.019810 -4.777437 -4.521784 139.999756
29 139.999741 -0.000060 -0.000119 -6.779768 -5.010664 -4.895275 139.999756
[Rope2_Seg03]
28 140.000107 0.000030 0.000000 -10.358294 -6.602530 -7.803111 140.000107
29 140.000107 0.000030 0.000000 -11.319251 -6.621002 -8.311261 140.000107
[Rope2_Seg04]
28 139.999802 0.000000 -0.000060 -16.175200 -6.690270 -14.449311 139.999802
29 139.999802 0.000000 -0.000060 -15.267634 -4.995744 -13.926959 139.999802
[Rope2_Seg05]
28 139.999985 -0.000060 0.000119 -16.652294 -3.210139 -20.648951 139.999985
29 139.999985 -0.000060 0.000119 -16.233782 -3.322858 -19.740068 139.999985
[Rope2_Seg06]
28 139.999893 -0.000030 -0.000119 -15.453928 -4.691932 -28.078133 139.999893
29 139.999893 -0.000030 -0.000119 -16.192202 -5.544571 -28.312792 139.999893
[Rope2_Seg07]
28 139.999893 0.000060 -0.000060 -7.383505 1.230726 -22.074570 139.999893
29 139.999893 0.000060 -0.000060 -6.644502 1.425433 -18.100037 139.999893
[Rope2_Seg09]
28 121.338966 0.000089 -0.000060 33.793236 -1.359788 -0.847141 121.338966
29 121.338966 0.000089 -0.000060 33.793236 -1.359788 -0.847141 121.338966
[R_mid_hand01]
28 104.680779 11.144459 -10.335981 -16.212063 45.237247 70.462852 105.778534
29 104.680779 11.144459 -10.335981 -16.212063 45.237247 70.462852 105.778534
[R_mid_hand02]
28 104.070427 2.443552 8.231699 49.067368 -67.749771 39.286453 104.424065
29 104.070427 2.443552 8.231699 49.067368 -67.749771 39.286453 104.424065
[R_mid_hand03]
28 106.028137 -11.221827 -5.996406 -177.101105 15.551026 -76.585571 106.788818
29 106.028137 -11.221827 -5.996406 -177.101105 15.551026 -76.585571 106.788818
[spine02]
28 129.756927 0.001550 0.000119 -1.043997 -3.923697 7.069142 129.756927
29 129.756927 0.001550 0.000119 -1.023899 -3.926965 6.770985 129.756927
[spine03]
28 78.614021 0.082515 -4.898976 1.026700 4.153313 4.026233 78.766556
29 78.614021 0.082454 -4.898979 1.040681 4.146420 4.212381 78.766556
[pelvis]
28 169.435242 0.051022 0.000000 0.025083 -0.189688 -11.108963 169.435257
29 169.435242 0.051022 0.000000 0.019518 -0.190233 -10.721423 169.435257
[null_rope03_connect]
28 -1.257226 -2.466202 137.391083 -6.936740 -77.878120 98.916481 137.418976
29 -1.257226 -2.466202 137.391083 -3.895073 -83.411552 101.531479 137.418976
[null_rope04_connect]
28 -1.259640 -2.480268 -137.844437 -6.936740 -77.878120 98.916481 137.872513
29 -1.259640 -2.480268 -137.844437 -3.895073 -83.411552 101.531479 137.872513
[Rope3_Seg01]
28 -0.000029 -0.000012 0.000211 21.324495 -58.236153 -73.880928 0.000214
29 -0.000029 -0.000011 0.000219 7.651289 -54.174419 -57.604771 0.000221
[Rope3_Seg02]
28 139.999924 -0.000119 0.000060 1.746234 8.265538 23.260412 139.999924
29 139.999924 -0.000119 0.000060 0.409930 6.750636 21.035725 139.999924
[Rope3_Seg03]
28 139.999924 -0.000119 0.000119 -0.627676 8.860375 23.056902 139.999924
29 139.999924 -0.000119 0.000119 -2.760289 5.483331 19.690155 139.999924
[Rope3_Seg04]
28 139.999924 0.000119 0.000000 -2.172523 5.250360 12.838765 139.999924
29 139.999924 0.000119 0.000000 -5.007646 1.711068 11.516986 139.999924
[Rope3_Seg05]
28 139.999924 -0.000238 0.000060 -6.910491 1.322144 10.306908 139.999924
29 139.999924 -0.000238 0.000060 -4.856124 2.856030 10.427606 139.999924
[Rope3_Seg06]
28 139.999893 -0.000119 -0.000060 -27.412148 -2.164754 16.163303 139.999893
29 139.999893 -0.000119 -0.000060 -20.882710 5.329060 18.284912 139.999893
[Rope3_Seg07]
28 139.999771 0.000060 -0.000119 -47.728905 -9.931163 15.029606 139.999771
29 139.999771 0.000060 -0.000119 -96.805977 -1.995537 19.812550 139.999771
[Rope3_Seg08]
28 139.999985 -0.000060 0.000000 -19.726704 -10.855859 2.166904 139.999985
29 139.999985 -0.000060 0.000000 -18.822342 -11.256732 -2.721481 139.999985
[Rope3_Seg09]
28 90.185997 -0.000179 -0.000060 89.793228 -1.359877 -0.847183 90.185997
29 90.185997 -0.000179 -0.000060 89.793228 -1.359877 -0.847183 90.185997
[R_rear_hand01]
28 103.366196 -6.073594 -10.757982 -177.714203 24.565960 -73.910950 104.101845
29 103.366196 -6.073594 -10.757982 -177.714203 24.565960 -73.910950 104.101845
[R_rear_hand02]
28 100.509819 12.039542 -7.992327 -12.874829 36.868488 72.167213 101.543350
29 100.509819 12.039542 -7.992327 -12.874829 36.868488 72.167213 101.543350
[R_rear_hand03]
28 101.539970 5.215704 5.435467 71.484581 -71.816628 21.513813 101.819031
29 101.539970 5.215704 5.435467 71.484581 -71.816628 21.513813 101.819031
[Rope4_Seg01]
28 0.000000 0.000000 0.000000 -82.782013 -42.494476 -131.670837 0.000000
29 0.000000 0.000000 0.000000 -83.878143 -49.817600 -129.300095 0.000000
[Rope4_Seg02]
28 139.999985 0.000060 0.000119 -7.398733 5.863262 31.927549 139.999985
29 139.999985 0.000060 0.000119 -7.719664 -3.912703 38.754379 139.999985
[Rope4_Seg03]
28 139.999924 0.000000 -0.000238 -17.107405 -5.940680 28.716988 139.999924
29 139.999924 0.000000 -0.000238 -12.394404 -15.844043 31.927723 139.999924
[Rope4_Seg04]
28 139.999985 0.000000 0.000119 -12.063743 3.982943 21.069170 139.999985
29 139.999985 0.000000 0.000119 -3.003673 9.863168 19.696192 139.999985
[Rope4_Seg05]
28 139.999802 -0.000060 -0.000119 -16.018555 6.939039 19.445848 139.999802
29 139.999802 -0.000060 -0.000119 -4.808128 15.212392 16.325508 139.999802
[Rope4_Seg06]
28 139.999924 0.000000 0.000060 -10.714922 -0.534083 8.399460 139.999924
29 139.999924 0.000000 0.000060 -5.832511 3.694390 7.022237 139.999924
[Rope4_Seg07]
28 139.999802 0.000000 0.000000 -6.605434 -1.352630 4.623973 139.999802
29 139.999802 0.000000 0.000000 -4.600547 1.627548 4.343020 139.999802
[Rope4_Seg08]
28 139.999924 0.000000 0.000119 -5.377284 -1.081392 2.562986 139.999924
29 139.999924 0.000000 0.000119 -4.662963 0.735540 2.580531 139.999924
[Rope4_Seg09]
28 90.185791 0.000060 0.000060 -135.617828 2.228885 0.850567 90.185791
29 90.185791 0.000060 0.000060 -135.617828 2.228885 0.850567 90.185791
[L_rear_hand01]
28 101.696655 -8.392275 -7.654577 -12.874829 -36.868488 107.832764 102.329041
29 101.696655 -8.392275 -7.654577 -12.874829 -36.868488 107.832764 102.329041
[L_rear_hand02]
28 102.726799 -1.568258 5.773216 71.484581 71.816628 158.486160 102.900848
29 102.726799 -1.568258 5.773216 71.484581 71.816628 158.486160 102.900848
[L_rear_hand03]
28 104.552910 9.721220 -10.420293 -177.714203 -24.565960 -106.089035 105.519653
29 104.552910 9.721220 -10.420293 -177.714203 -24.565960 -106.089035 105.519653
